<svg width="201" height="107" viewBox="0 0 201 107" fill="none" xmlns="http://www.w3.org/2000/svg">
<path d="M33.7857 24.5926C15.9524 20.86 -8.10203 -5.26783 2.68104 0.95304C13.4641 7.17392 33.7857 14.6391 56.1811 15.0538C78.5764 15.4685 51.619 28.3251 33.7857 24.5926Z" fill="#D9D9D9"/>
<path d="M104.29 58.6002C104.29 82.6503 84.7932 102.147 60.7432 102.147C36.6931 102.147 17.1967 82.6503 17.1967 58.6002C17.1967 34.5501 36.6931 15.0537 60.7432 15.0537C84.7932 15.0537 104.29 34.5501 104.29 58.6002ZM25.8323 58.6002C25.8323 77.881 41.4624 93.5111 60.7432 93.5111C80.0239 93.5111 95.654 77.881 95.654 58.6002C95.654 39.3195 80.0239 23.6894 60.7432 23.6894C41.4624 23.6894 25.8323 39.3195 25.8323 58.6002Z" fill="#D9D9D9"/>
<path d="M173.357 58.0621C173.357 76.386 158.502 91.2404 140.178 91.2404C121.854 91.2404 107 76.386 107 58.0621C107 39.7382 121.854 24.8838 140.178 24.8838C158.502 24.8838 173.357 39.7382 173.357 58.0621ZM113.58 58.0621C113.58 72.7522 125.488 84.6608 140.178 84.6608C154.868 84.6608 166.777 72.7522 166.777 58.0621C166.777 43.372 154.868 31.4633 140.178 31.4633C125.488 31.4633 113.58 43.372 113.58 58.0621Z" fill="#D9D9D9"/>
<path d="M164.647 35.6667C178.333 35.2519 200.729 9.12402 200.729 9.12402C200.729 9.12402 185.765 17.1726 175.43 20.3217C163.05 24.0938 142.667 25.2984 142.667 25.2984C142.667 25.2984 150.961 36.0814 164.647 35.6667Z" fill="#D9D9D9"/>
<path d="M97.876 91.2404L106.171 82.9458L114.465 91.2404L106.171 107L97.876 91.2404Z" fill="#D9D9D9"/>
<path d="M74.6511 42.3023C77.1119 42.3023 79.5174 43.032 81.5635 44.3991C83.6095 45.7663 85.2042 47.7094 86.1459 49.9829C87.0876 52.2563 87.334 54.758 86.8539 57.1715C86.3739 59.5849 85.1889 61.8019 83.4489 63.5419C81.7088 65.2819 79.4919 66.4669 77.0784 66.947C74.665 67.427 72.1633 67.1806 69.8899 66.239C67.6164 65.2973 65.6733 63.7026 64.3061 61.6565C62.939 59.6104 62.2093 57.2049 62.2093 54.7442H74.6511V42.3023Z" fill="#D9D9D9"/>
<path d="M144.326 55.9883C144.326 58.039 143.718 60.0436 142.578 61.7486C141.439 63.4537 139.82 64.7826 137.925 65.5673C136.031 66.3521 133.946 66.5574 131.935 66.1573C129.923 65.7573 128.076 64.7698 126.626 63.3198C125.176 61.8698 124.188 60.0223 123.788 58.0111C123.388 55.9998 123.594 53.9151 124.378 52.0206C125.163 50.126 126.492 48.5068 128.197 47.3675C129.902 46.2282 131.907 45.6201 133.957 45.6201V55.9883H144.326Z" fill="#D9D9D9"/>
</svg>
