<svg width="768" height="1025" viewBox="0 0 768 1025" fill="none" xmlns="http://www.w3.org/2000/svg">
<g filter="url(#filter0_i_47_26)">
<g filter="url(#filter1_i_47_26)">
<path d="M469.484 244.706C358.368 220.339 338.367 332.203 200.584 312.267C62.7997 292.331 296.143 646.749 155.026 761.935C13.909 877.121 501.708 1111.92 497.263 985.661C492.818 859.4 836.167 746.429 755.052 661.147C673.938 575.865 780.609 362.107 715.05 362.107C649.492 362.107 580.6 269.072 469.484 244.706Z" fill="#030C2E"/>
</g>
<path d="M469.484 244.706C358.368 220.339 338.367 332.203 200.584 312.267C62.7997 292.331 296.143 646.749 155.026 761.935C13.909 877.121 501.708 1111.92 497.263 985.661C492.818 859.4 836.167 746.429 755.052 661.147C673.938 575.865 780.609 362.107 715.05 362.107C649.492 362.107 580.6 269.072 469.484 244.706Z" stroke="black"/>
<g filter="url(#filter2_i_47_26)">
<path d="M465.835 324.427C372.258 303.915 355.414 398.081 239.378 381.299C123.343 364.517 319.855 662.862 201.012 759.824C82.1688 856.786 492.973 1054.44 489.23 948.154C485.487 841.869 774.641 746.771 706.329 674.982C638.018 603.193 727.852 423.253 672.641 423.253C617.431 423.253 559.413 344.938 465.835 324.427Z" fill="#030F39"/>
</g>
<path d="M465.835 324.427C372.258 303.915 355.414 398.081 239.378 381.299C123.343 364.517 319.855 662.862 201.012 759.824C82.1688 856.786 492.973 1054.44 489.23 948.154C485.487 841.869 774.641 746.771 706.329 674.982C638.018 603.193 727.852 423.253 672.641 423.253C617.431 423.253 559.413 344.938 465.835 324.427Z" stroke="black"/>
<g filter="url(#filter3_i_47_26)">
<path d="M462.27 405.742C391.871 390.321 379.199 461.121 291.905 448.503C204.61 435.885 352.448 660.202 263.041 733.105C173.634 806.008 482.686 954.619 479.87 874.706C477.054 794.793 694.587 723.292 643.196 669.315C591.804 615.339 659.387 480.048 617.852 480.048C576.317 480.048 532.669 421.164 462.27 405.742Z" fill="#122052"/>
</g>
<path d="M462.27 405.742C391.871 390.321 379.199 461.121 291.905 448.503C204.61 435.885 352.448 660.202 263.041 733.105C173.634 806.008 482.686 954.619 479.87 874.706C477.054 794.793 694.587 723.292 643.196 669.315C591.804 615.339 659.387 480.048 617.852 480.048C576.317 480.048 532.669 421.164 462.27 405.742Z" stroke="black"/>
<g filter="url(#filter4_i_47_26)">
<path d="M459.558 452.095C402.848 439.665 392.64 496.732 322.319 486.561C251.999 476.391 371.09 657.196 299.068 715.958C227.046 774.719 476.004 894.503 473.736 830.091C471.467 765.679 646.702 708.047 605.304 664.541C563.905 621.035 618.347 511.987 584.888 511.987C551.429 511.987 516.269 464.526 459.558 452.095Z" fill="#283565"/>
</g>
<path d="M459.558 452.095C402.848 439.665 392.64 496.732 322.319 486.561C251.999 476.391 371.09 657.196 299.068 715.958C227.046 774.719 476.004 894.503 473.736 830.091C471.467 765.679 646.702 708.047 605.304 664.541C563.905 621.035 618.347 511.987 584.888 511.987C551.429 511.987 516.269 464.526 459.558 452.095Z" stroke="black"/>
<g filter="url(#filter5_i_47_26)">
<path d="M457.515 501.21C414.851 491.864 407.172 534.771 354.269 527.124C301.366 519.477 390.96 655.42 336.777 699.601C282.594 743.782 469.887 833.844 468.181 785.414C466.474 736.985 598.305 693.653 567.161 660.942C536.016 628.231 576.973 546.241 551.802 546.241C526.63 546.241 500.179 510.556 457.515 501.21Z" fill="#505C87"/>
</g>
<path d="M457.515 501.21C414.851 491.864 407.172 534.771 354.269 527.124C301.366 519.477 390.96 655.42 336.777 699.601C282.594 743.782 469.887 833.844 468.181 785.414C466.474 736.985 598.305 693.653 567.161 660.942C536.016 628.231 576.973 546.241 551.802 546.241C526.63 546.241 500.179 510.556 457.515 501.21Z" stroke="black"/>
<path d="M427.084 585.683C415.742 554.766 416.598 559.031 420.022 558.391C423.446 557.751 439.925 558.817 456.831 585.683C473.737 612.548 473.951 632.803 477.803 641.545C481.655 650.287 490.644 662.227 494.924 616.599C499.204 570.971 528.123 669.755 514.184 698.261C501.986 723.207 474.098 746.352 442.707 743.463C411.275 740.57 393.922 717.76 384.283 687.813C374.762 658.233 386.851 619.371 398.622 609.563C410.392 599.755 388.992 615.533 412.532 638.347C436.072 661.161 438.426 616.599 427.084 585.683Z" stroke="black"/>
<g filter="url(#filter6_i_47_26)">
<path d="M427.084 585.683C415.742 554.766 416.598 559.031 420.022 558.391C423.446 557.751 439.925 558.817 456.831 585.683C473.737 612.548 473.951 632.803 477.803 641.545C481.655 650.287 490.644 662.227 494.924 616.599C499.204 570.971 528.123 669.755 514.184 698.261C501.986 723.207 474.098 746.352 442.707 743.463C411.275 740.57 393.922 717.76 384.283 687.813C374.762 658.233 386.851 619.371 398.622 609.563C410.392 599.755 388.992 615.533 412.532 638.347C436.072 661.161 438.426 616.599 427.084 585.683Z" fill="#E04817"/>
</g>
<path d="M427.084 585.683C415.742 554.766 416.598 559.031 420.022 558.391C423.446 557.751 439.925 558.817 456.831 585.683C473.737 612.548 473.951 632.803 477.803 641.545C481.655 650.287 490.644 662.227 494.924 616.599C499.204 570.971 528.123 669.755 514.184 698.261C501.986 723.207 474.098 746.352 442.707 743.463C411.275 740.57 393.922 717.76 384.283 687.813C374.762 658.233 386.851 619.371 398.622 609.563C410.392 599.755 388.992 615.533 412.532 638.347C436.072 661.161 438.426 616.599 427.084 585.683Z" stroke="black"/>
<path d="M451.481 642.479C444.859 624.35 438.965 626.85 440.964 626.475C442.963 626.1 457.447 626.725 467.317 642.479C477.187 658.233 476.197 666.269 478.445 671.395C480.694 676.521 487.503 687.918 490.002 661.161C492.5 634.404 503.917 691.565 495.78 708.282C488.659 722.91 472.533 736.697 454.207 735.003C435.857 733.307 416.019 716.248 410.392 698.687C404.834 681.341 413.228 660.729 420.1 654.977C426.971 649.226 415.91 661.859 429.652 675.238C443.395 688.616 458.102 660.609 451.481 642.479Z" stroke="black"/>
<g filter="url(#filter7_i_47_26)">
<path d="M451.481 642.479C444.859 624.35 438.965 626.85 440.964 626.475C442.963 626.1 457.447 626.725 467.317 642.479C477.187 658.233 476.197 666.269 478.445 671.395C480.694 676.521 487.503 687.918 490.002 661.161C492.5 634.404 503.917 691.565 495.78 708.282C488.659 722.91 472.533 736.697 454.207 735.003C435.857 733.307 416.019 716.248 410.392 698.687C404.834 681.341 413.228 660.729 420.1 654.977C426.971 649.226 415.91 661.859 429.652 675.238C443.395 688.616 458.102 660.609 451.481 642.479Z" fill="#FFE600"/>
</g>
<path d="M451.481 642.479C444.859 624.35 438.965 626.85 440.964 626.475C442.963 626.1 457.447 626.725 467.317 642.479C477.187 658.233 476.197 666.269 478.445 671.395C480.694 676.521 487.503 687.918 490.002 661.161C492.5 634.404 503.917 691.565 495.78 708.282C488.659 722.91 472.533 736.697 454.207 735.003C435.857 733.307 416.019 716.248 410.392 698.687C404.834 681.341 413.228 660.729 420.1 654.977C426.971 649.226 415.91 661.859 429.652 675.238C443.395 688.616 458.102 660.609 451.481 642.479Z" stroke="black"/>
<path d="M480.627 543.822C478.11 536.926 475.87 537.877 476.63 537.734C477.389 537.592 482.895 537.83 486.647 543.822C490.399 549.815 490.022 552.872 490.877 554.822C491.732 556.772 494.32 561.107 495.27 550.929C496.219 540.75 500.559 562.495 497.466 568.853C494.759 574.418 488.63 579.663 481.663 579.018C474.689 578.373 467.148 571.884 465.009 565.204C462.896 558.605 466.087 550.764 468.699 548.577C471.311 546.389 467.106 551.194 472.33 556.284C477.554 561.373 483.144 550.719 480.627 543.822Z" stroke="black"/>
<g filter="url(#filter8_i_47_26)">
<path d="M480.627 543.822C478.11 536.926 475.87 537.877 476.63 537.734C477.389 537.592 482.895 537.83 486.647 543.822C490.399 549.815 490.022 552.872 490.877 554.822C491.732 556.772 494.32 561.107 495.27 550.929C496.219 540.75 500.559 562.495 497.466 568.853C494.759 574.418 488.63 579.663 481.663 579.018C474.689 578.373 467.148 571.884 465.009 565.204C462.896 558.605 466.087 550.764 468.699 548.577C471.311 546.389 467.106 551.194 472.33 556.284C477.554 561.373 483.144 550.719 480.627 543.822Z" fill="#E04817"/>
</g>
<path d="M480.627 543.822C478.11 536.926 475.87 537.877 476.63 537.734C477.389 537.592 482.895 537.83 486.647 543.822C490.399 549.815 490.022 552.872 490.877 554.822C491.732 556.772 494.32 561.107 495.27 550.929C496.219 540.75 500.559 562.495 497.466 568.853C494.759 574.418 488.63 579.663 481.663 579.018C474.689 578.373 467.148 571.884 465.009 565.204C462.896 558.605 466.087 550.764 468.699 548.577C471.311 546.389 467.106 551.194 472.33 556.284C477.554 561.373 483.144 550.719 480.627 543.822Z" stroke="black"/>
<path d="M483.643 556.686C482.51 553.558 481.502 553.989 481.844 553.925C482.186 553.86 484.664 553.968 486.352 556.686C488.04 559.405 487.871 560.791 488.255 561.676C488.64 562.56 489.805 564.527 490.232 559.91C490.659 555.293 492.612 565.156 491.22 568.041C490.002 570.565 487.244 572.944 484.109 572.651C480.971 572.359 477.577 569.415 476.615 566.385C475.664 563.392 477.1 559.835 478.275 558.843C479.451 557.85 477.558 560.03 479.909 562.339C482.26 564.647 484.776 559.815 483.643 556.686Z" stroke="black"/>
<g filter="url(#filter9_i_47_26)">
<path d="M483.643 556.686C482.51 553.558 481.502 553.989 481.844 553.925C482.186 553.86 484.664 553.968 486.352 556.686C488.04 559.405 487.871 560.791 488.255 561.676C488.64 562.56 489.805 564.527 490.232 559.91C490.659 555.293 492.612 565.156 491.22 568.041C490.002 570.565 487.244 572.944 484.109 572.651C480.971 572.359 477.577 569.415 476.615 566.385C475.664 563.392 477.1 559.835 478.275 558.843C479.451 557.85 477.558 560.03 479.909 562.339C482.26 564.647 484.776 559.815 483.643 556.686Z" fill="#FFE500"/>
</g>
<path d="M483.643 556.686C482.51 553.558 481.502 553.989 481.844 553.925C482.186 553.86 484.664 553.968 486.352 556.686C488.04 559.405 487.871 560.791 488.255 561.676C488.64 562.56 489.805 564.527 490.232 559.91C490.659 555.293 492.612 565.156 491.22 568.041C490.002 570.565 487.244 572.944 484.109 572.651C480.971 572.359 477.577 569.415 476.615 566.385C475.664 563.392 477.1 559.835 478.275 558.843C479.451 557.85 477.558 560.03 479.909 562.339C482.26 564.647 484.776 559.815 483.643 556.686Z" stroke="black"/>
</g>
<g filter="url(#filter10_b_47_26)">
<path d="M556.111 273.833C476.577 355.601 450.661 471.776 172.29 456.137C-106.082 440.498 -5.0995 470.435 179.886 490.989C364.871 511.543 488.194 423.072 580.686 293.046C673.179 163.021 635.646 192.064 556.111 273.833Z" fill="#030C2E"/>
</g>
<g filter="url(#filter11_b_47_26)">
<path d="M672.041 537.707C565.305 497.466 448.452 520.126 351.567 258.69C254.682 -2.74489 267.585 101.788 322.653 279.579C377.72 457.369 508.096 535.073 664.247 567.912C820.398 600.75 778.777 577.947 672.041 537.707Z" fill="#030C2E"/>
</g>
<g filter="url(#filter12_b_47_26)">
<path d="M257.907 886.651C316.326 847.175 335.31 791.165 539.947 798.459C744.584 805.752 670.336 791.413 534.343 781.67C398.351 771.926 307.747 814.67 239.831 877.413C171.915 940.156 199.489 926.126 257.907 886.651Z" fill="#030C2E"/>
</g>
<g filter="url(#filter13_b_47_26)">
<path d="M132.458 848.898C201.059 832.622 238.617 786.94 427.463 866.103C616.31 945.265 551.924 905.605 428.156 848.416C304.389 791.228 204.525 799.183 118.814 833.867C33.1037 868.55 63.8564 865.174 132.458 848.898Z" fill="#030C2E"/>
</g>
<defs>
<filter id="filter0_i_47_26" x="128.895" y="240.715" width="645.064" height="787.725" filterUnits="userSpaceOnUse" color-interpolation-filters="sRGB">
<feFlood flood-opacity="0" result="BackgroundImageFix"/>
<feBlend mode="normal" in="SourceGraphic" in2="BackgroundImageFix" result="shape"/>
<feColorMatrix in="SourceAlpha" type="matrix" values="0 0 0 0 0 0 0 0 0 0 0 0 0 0 0 0 0 0 127 0" result="hardAlpha"/>
<feOffset dx="6" dy="6"/>
<feGaussianBlur stdDeviation="3"/>
<feComposite in2="hardAlpha" operator="arithmetic" k2="-1" k3="1"/>
<feColorMatrix type="matrix" values="0 0 0 0 0 0 0 0 0 0 0 0 0 0 0 0 0 0 0.5 0"/>
<feBlend mode="normal" in2="shape" result="effect1_innerShadow_47_26"/>
</filter>
<filter id="filter1_i_47_26" x="128.895" y="240.715" width="649.064" height="791.725" filterUnits="userSpaceOnUse" color-interpolation-filters="sRGB">
<feFlood flood-opacity="0" result="BackgroundImageFix"/>
<feBlend mode="normal" in="SourceGraphic" in2="BackgroundImageFix" result="shape"/>
<feColorMatrix in="SourceAlpha" type="matrix" values="0 0 0 0 0 0 0 0 0 0 0 0 0 0 0 0 0 0 127 0" result="hardAlpha"/>
<feOffset dx="10" dy="10"/>
<feGaussianBlur stdDeviation="5"/>
<feComposite in2="hardAlpha" operator="arithmetic" k2="-1" k3="1"/>
<feColorMatrix type="matrix" values="0 0 0 0 0 0 0 0 0 0 0 0 0 0 0 0 0 0 0.5 0"/>
<feBlend mode="normal" in2="shape" result="effect1_innerShadow_47_26"/>
</filter>
<filter id="filter2_i_47_26" x="178.926" y="320.988" width="548.351" height="668.205" filterUnits="userSpaceOnUse" color-interpolation-filters="sRGB">
<feFlood flood-opacity="0" result="BackgroundImageFix"/>
<feBlend mode="normal" in="SourceGraphic" in2="BackgroundImageFix" result="shape"/>
<feColorMatrix in="SourceAlpha" type="matrix" values="0 0 0 0 0 0 0 0 0 0 0 0 0 0 0 0 0 0 127 0" result="hardAlpha"/>
<feOffset dx="10" dy="10"/>
<feGaussianBlur stdDeviation="5"/>
<feComposite in2="hardAlpha" operator="arithmetic" k2="-1" k3="1"/>
<feColorMatrix type="matrix" values="0 0 0 0 0 0 0 0 0 0 0 0 0 0 0 0 0 0 0.5 0"/>
<feBlend mode="normal" in2="shape" result="effect1_innerShadow_47_26"/>
</filter>
<filter id="filter3_i_47_26" x="246.302" y="403.033" width="415.254" height="505.134" filterUnits="userSpaceOnUse" color-interpolation-filters="sRGB">
<feFlood flood-opacity="0" result="BackgroundImageFix"/>
<feBlend mode="normal" in="SourceGraphic" in2="BackgroundImageFix" result="shape"/>
<feColorMatrix in="SourceAlpha" type="matrix" values="0 0 0 0 0 0 0 0 0 0 0 0 0 0 0 0 0 0 127 0" result="hardAlpha"/>
<feOffset dx="10" dy="10"/>
<feGaussianBlur stdDeviation="5"/>
<feComposite in2="hardAlpha" operator="arithmetic" k2="-1" k3="1"/>
<feColorMatrix type="matrix" values="0 0 0 0 0 0 0 0 0 0 0 0 0 0 0 0 0 0 0.5 0"/>
<feBlend mode="normal" in2="shape" result="effect1_innerShadow_47_26"/>
</filter>
<filter id="filter4_i_47_26" x="285.487" y="449.814" width="336.649" height="409.283" filterUnits="userSpaceOnUse" color-interpolation-filters="sRGB">
<feFlood flood-opacity="0" result="BackgroundImageFix"/>
<feBlend mode="normal" in="SourceGraphic" in2="BackgroundImageFix" result="shape"/>
<feColorMatrix in="SourceAlpha" type="matrix" values="0 0 0 0 0 0 0 0 0 0 0 0 0 0 0 0 0 0 127 0" result="hardAlpha"/>
<feOffset dx="10" dy="10"/>
<feGaussianBlur stdDeviation="5"/>
<feComposite in2="hardAlpha" operator="arithmetic" k2="-1" k3="1"/>
<feColorMatrix type="matrix" values="0 0 0 0 0 0 0 0 0 0 0 0 0 0 0 0 0 0 0.5 0"/>
<feBlend mode="normal" in2="shape" result="effect1_innerShadow_47_26"/>
</filter>
<filter id="filter5_i_47_26" x="326.436" y="499.371" width="255.989" height="310.458" filterUnits="userSpaceOnUse" color-interpolation-filters="sRGB">
<feFlood flood-opacity="0" result="BackgroundImageFix"/>
<feBlend mode="normal" in="SourceGraphic" in2="BackgroundImageFix" result="shape"/>
<feColorMatrix in="SourceAlpha" type="matrix" values="0 0 0 0 0 0 0 0 0 0 0 0 0 0 0 0 0 0 127 0" result="hardAlpha"/>
<feOffset dx="10" dy="10"/>
<feGaussianBlur stdDeviation="5"/>
<feComposite in2="hardAlpha" operator="arithmetic" k2="-1" k3="1"/>
<feColorMatrix type="matrix" values="0 0 0 0 0 0 0 0 0 0 0 0 0 0 0 0 0 0 0.5 0"/>
<feBlend mode="normal" in2="shape" result="effect1_innerShadow_47_26"/>
</filter>
<filter id="filter6_i_47_26" x="380.352" y="557.773" width="148.099" height="196.434" filterUnits="userSpaceOnUse" color-interpolation-filters="sRGB">
<feFlood flood-opacity="0" result="BackgroundImageFix"/>
<feBlend mode="normal" in="SourceGraphic" in2="BackgroundImageFix" result="shape"/>
<feColorMatrix in="SourceAlpha" type="matrix" values="0 0 0 0 0 0 0 0 0 0 0 0 0 0 0 0 0 0 127 0" result="hardAlpha"/>
<feOffset dx="10" dy="10"/>
<feGaussianBlur stdDeviation="5"/>
<feComposite in2="hardAlpha" operator="arithmetic" k2="-1" k3="1"/>
<feColorMatrix type="matrix" values="0 0 0 0 0 0 0 0 0 0 0 0 0 0 0 0 0 0 0.5 0"/>
<feBlend mode="normal" in2="shape" result="effect1_innerShadow_47_26"/>
</filter>
<filter id="filter7_i_47_26" x="408.083" y="625.906" width="101.08" height="119.739" filterUnits="userSpaceOnUse" color-interpolation-filters="sRGB">
<feFlood flood-opacity="0" result="BackgroundImageFix"/>
<feBlend mode="normal" in="SourceGraphic" in2="BackgroundImageFix" result="shape"/>
<feColorMatrix in="SourceAlpha" type="matrix" values="0 0 0 0 0 0 0 0 0 0 0 0 0 0 0 0 0 0 127 0" result="hardAlpha"/>
<feOffset dx="10" dy="10"/>
<feGaussianBlur stdDeviation="5"/>
<feComposite in2="hardAlpha" operator="arithmetic" k2="-1" k3="1"/>
<feColorMatrix type="matrix" values="0 0 0 0 0 0 0 0 0 0 0 0 0 0 0 0 0 0 0.5 0"/>
<feBlend mode="normal" in2="shape" result="effect1_innerShadow_47_26"/>
</filter>
<filter id="filter8_i_47_26" x="463.821" y="537.208" width="40.2407" height="47.3643" filterUnits="userSpaceOnUse" color-interpolation-filters="sRGB">
<feFlood flood-opacity="0" result="BackgroundImageFix"/>
<feBlend mode="normal" in="SourceGraphic" in2="BackgroundImageFix" result="shape"/>
<feColorMatrix in="SourceAlpha" type="matrix" values="0 0 0 0 0 0 0 0 0 0 0 0 0 0 0 0 0 0 127 0" result="hardAlpha"/>
<feOffset dx="5" dy="5"/>
<feGaussianBlur stdDeviation="2.5"/>
<feComposite in2="hardAlpha" operator="arithmetic" k2="-1" k3="1"/>
<feColorMatrix type="matrix" values="0 0 0 0 0 0 0 0 0 0 0 0 0 0 0 0 0 0 0.5 0"/>
<feBlend mode="normal" in2="shape" result="effect1_innerShadow_47_26"/>
</filter>
<filter id="filter9_i_47_26" x="475.805" y="553.413" width="21.4082" height="24.7632" filterUnits="userSpaceOnUse" color-interpolation-filters="sRGB">
<feFlood flood-opacity="0" result="BackgroundImageFix"/>
<feBlend mode="normal" in="SourceGraphic" in2="BackgroundImageFix" result="shape"/>
<feColorMatrix in="SourceAlpha" type="matrix" values="0 0 0 0 0 0 0 0 0 0 0 0 0 0 0 0 0 0 127 0" result="hardAlpha"/>
<feOffset dx="5" dy="5"/>
<feGaussianBlur stdDeviation="2.5"/>
<feComposite in2="hardAlpha" operator="arithmetic" k2="-1" k3="1"/>
<feColorMatrix type="matrix" values="0 0 0 0 0 0 0 0 0 0 0 0 0 0 0 0 0 0 0.5 0"/>
<feBlend mode="normal" in2="shape" result="effect1_innerShadow_47_26"/>
</filter>
<filter id="filter10_b_47_26" x="-4" y="199.974" width="642.95" height="297.98" filterUnits="userSpaceOnUse" color-interpolation-filters="sRGB">
<feFlood flood-opacity="0" result="BackgroundImageFix"/>
<feGaussianBlur in="BackgroundImage" stdDeviation="2"/>
<feComposite in2="SourceAlpha" operator="in" result="effect1_backgroundBlur_47_26"/>
<feBlend mode="normal" in="SourceGraphic" in2="effect1_backgroundBlur_47_26" result="shape"/>
</filter>
<filter id="filter11_b_47_26" x="275.968" y="97.1667" width="495.162" height="490.451" filterUnits="userSpaceOnUse" color-interpolation-filters="sRGB">
<feFlood flood-opacity="0" result="BackgroundImageFix"/>
<feGaussianBlur in="BackgroundImage" stdDeviation="2"/>
<feComposite in2="SourceAlpha" operator="in" result="effect1_backgroundBlur_47_26"/>
<feBlend mode="normal" in="SourceGraphic" in2="effect1_backgroundBlur_47_26" result="shape"/>
</filter>
<filter id="filter12_b_47_26" x="195.992" y="776.286" width="474.603" height="148.099" filterUnits="userSpaceOnUse" color-interpolation-filters="sRGB">
<feFlood flood-opacity="0" result="BackgroundImageFix"/>
<feGaussianBlur in="BackgroundImage" stdDeviation="2"/>
<feComposite in2="SourceAlpha" operator="in" result="effect1_backgroundBlur_47_26"/>
<feBlend mode="normal" in="SourceGraphic" in2="effect1_backgroundBlur_47_26" result="shape"/>
</filter>
<filter id="filter13_b_47_26" x="62.5994" y="802.645" width="487.633" height="111.902" filterUnits="userSpaceOnUse" color-interpolation-filters="sRGB">
<feFlood flood-opacity="0" result="BackgroundImageFix"/>
<feGaussianBlur in="BackgroundImage" stdDeviation="2"/>
<feComposite in2="SourceAlpha" operator="in" result="effect1_backgroundBlur_47_26"/>
<feBlend mode="normal" in="SourceGraphic" in2="effect1_backgroundBlur_47_26" result="shape"/>
</filter>
</defs>
</svg>
